<?xml version="1.0" standalone="no"?>
<!DOCTYPE svg PUBLIC "-//W3C//DTD SVG 20010904//EN"
 "http://www.w3.org/TR/2001/REC-SVG-20010904/DTD/svg10.dtd">
<svg version="1.0" xmlns="http://www.w3.org/2000/svg"
 width="574.000000pt" height="574.000000pt" viewBox="0 0 574.000000 574.000000"
 preserveAspectRatio="xMidYMid meet">
<metadata>
Created by potrace 1.11, written by Peter Selinger 2001-2013
</metadata>
<g transform="translate(0.000000,574.000000) scale(0.100000,-0.100000)"
fill="#000000" stroke="none">
<path d="M0 5731 c0 -12 19 -18 89 -26 38 -5 52 -4 47 4 -4 6 -17 11 -29 11
-14 0 -18 3 -10 8 7 4 -12 9 -42 10 -30 1 -55 -2 -55 -7z"/>
<path d="M3563 5663 c3 -43 8 -85 12 -95 7 -17 59 -37 155 -58 80 -18 90 -26
90 -64 0 -28 -4 -35 -27 -41 -25 -6 -26 -8 -9 -14 14 -5 16 -10 8 -15 -7 -4
-12 -16 -12 -27 0 -13 -7 -19 -24 -19 -14 0 -31 -6 -39 -14 -8 -8 -35 -17 -60
-19 -26 -3 -52 -9 -58 -13 -7 -4 -40 -7 -75 -7 -44 0 -64 -4 -68 -13 -3 -9
-21 -14 -51 -14 -31 0 -51 -6 -64 -19 -15 -15 -30 -18 -61 -15 -25 2 -39 0
-35 -6 8 -13 -6 -13 -25 0 -13 9 -13 11 0 21 13 9 12 10 -3 5 -10 -3 -21 -6
-23 -6 -3 0 -2 -6 3 -12 4 -7 -5 -5 -19 4 -14 10 -41 19 -60 21 -19 2 -39 6
-45 10 -7 4 -24 5 -38 3 -17 -3 -23 -1 -19 6 5 8 -1 9 -17 5 -13 -4 -30 -7
-37 -7 -7 0 -11 -4 -7 -9 3 -5 1 -12 -5 -16 -6 -4 -8 -10 -5 -15 3 -5 0 -12
-6 -16 -6 -3 -16 -20 -23 -36 l-12 -29 -12 26 c-8 18 -8 24 0 22 16 -3 29 50
15 61 -20 15 -60 12 -73 -6 -10 -13 -13 -13 -14 -3 0 11 -15 12 -77 7 -43 -4
-89 -7 -102 -8 -18 0 -21 -2 -10 -9 9 -7 -6 -8 -43 -3 -40 4 -58 3 -58 -5 0
-6 -8 -11 -19 -11 -21 0 -93 -29 -73 -30 7 0 11 -4 8 -8 -3 -4 -2 -39 2 -78 6
-58 10 -69 25 -66 9 2 17 -2 17 -7 0 -6 7 -8 14 -5 13 5 13 2 3 -19 l-12 -26
-27 32 c-15 18 -27 43 -28 57 0 37 -21 104 -34 112 -16 11 -36 10 -36 -2 0 -5
8 -10 18 -10 14 0 14 -2 3 -9 -16 -10 -39 -4 -59 16 -7 7 -23 13 -35 13 -13 0
-31 6 -42 14 -27 18 -74 26 -82 13 -10 -17 -11 -80 -1 -99 6 -12 5 -18 -2 -18
-6 0 -10 -8 -8 -17 2 -14 -3 -17 -19 -15 -23 3 -33 -13 -12 -20 8 -3 8 -15 -1
-44 -6 -21 -10 -53 -8 -69 4 -28 5 -27 14 15 7 35 17 48 44 64 l35 21 -22 -29
c-24 -30 -22 -56 3 -35 7 6 11 16 7 22 -3 6 -1 7 6 3 6 -4 18 -2 26 4 10 8 15
9 15 2 0 -18 -53 -62 -74 -62 -11 0 -16 -3 -13 -7 4 -3 -2 -12 -12 -20 -12 -8
-17 -20 -14 -33 3 -11 1 -20 -4 -20 -5 0 -8 -14 -5 -30 3 -23 1 -29 -10 -25
-9 4 -24 -7 -39 -27 -13 -18 -36 -44 -50 -58 -19 -18 -24 -31 -19 -45 4 -11 5
-24 2 -30 -4 -5 -8 -19 -9 -30 -7 -47 -37 -104 -64 -124 -19 -14 -29 -17 -29
-9 -1 8 -5 7 -14 -4 -7 -10 -18 -18 -24 -18 -6 0 -9 -7 -6 -15 4 -9 0 -15 -10
-15 -9 0 -16 -6 -16 -14 0 -8 -13 -24 -30 -36 -32 -23 -94 -125 -106 -175 -4
-16 -15 -42 -25 -57 -11 -14 -19 -31 -19 -37 0 -6 -11 -30 -25 -55 -14 -25
-26 -63 -28 -85 -3 -40 5 -54 17 -28 4 6 3 1 -1 -13 -13 -47 -10 -160 4 -160
15 0 15 3 4 -38 -6 -19 -6 -32 -1 -32 5 0 6 -7 3 -17 -4 -11 -3 -14 5 -9 7 4
12 4 12 1 0 -15 -33 -75 -41 -75 -11 0 -11 3 1 34 5 14 6 26 2 26 -12 0 -31
58 -25 79 3 13 -2 24 -15 32 -17 11 -19 21 -15 80 3 40 0 69 -6 73 -15 10
-111 -95 -111 -121 0 -13 -1 -23 -2 -24 -2 0 -29 -2 -61 -5 l-57 -6 6 81 c6
69 4 81 -9 81 -8 0 -17 -7 -21 -15 -3 -8 -10 -15 -16 -15 -15 0 -38 -23 -55
-56 -11 -22 -11 -31 1 -59 15 -37 11 -60 -13 -69 -25 -10 -45 14 -38 46 4 16
8 47 9 68 3 38 1 40 -26 40 -22 0 -31 7 -40 28 -6 15 -11 30 -10 35 1 4 -5 7
-14 7 -10 0 -14 -6 -10 -17 15 -56 15 -81 1 -111 -18 -34 -32 -39 -68 -20 -12
6 -29 14 -37 18 -17 8 -21 56 -8 83 12 23 3 22 -21 -5 -11 -11 -18 -25 -15
-30 3 -5 -1 -19 -10 -32 -8 -13 -12 -33 -9 -45 3 -12 2 -21 -3 -19 -5 2 -9 -1
-9 -7 0 -5 6 -9 13 -9 17 2 15 -21 -2 -35 -24 -20 -53 2 -54 43 -1 19 3 38 8
41 6 3 10 18 9 33 0 15 -3 21 -6 15 -7 -19 -37 -16 -55 5 -9 9 -19 32 -23 50
-3 17 -10 32 -15 32 -5 0 -15 3 -24 6 -13 5 -16 -1 -16 -29 0 -20 4 -39 10
-42 12 -7 6 -63 -8 -77 -5 -5 -20 -7 -32 -3 -18 6 -21 13 -19 43 2 21 7 40 11
43 10 7 -1 39 -13 39 -5 0 -9 -4 -9 -10 0 -15 -42 -60 -56 -60 -6 0 -14 -7
-18 -15 -3 -8 -12 -15 -20 -15 -16 0 -25 28 -23 70 2 57 -4 100 -14 100 -8 0
-10 -20 -6 -67 4 -57 2 -71 -17 -97 -28 -41 -37 -46 -58 -35 -12 6 -18 6 -18
-1 0 -5 -9 -10 -19 -10 -23 0 -31 26 -17 58 6 16 5 30 -5 50 -8 15 -14 54 -14
87 l0 60 -33 -3 c-33 -2 -107 31 -148 65 -27 24 -77 127 -84 177 l-6 41 -10
-45 c-9 -41 -12 -45 -39 -45 -29 0 -30 2 -29 40 1 22 4 62 6 88 3 26 1 50 -4
53 -14 9 -9 54 6 54 8 0 17 7 20 16 9 22 8 24 -10 24 -8 0 -13 4 -9 9 5 9 -31
41 -47 41 -5 0 -8 -1019 -8 -2265 l0 -2265 1054 0 1054 0 -9 33 c-18 65 -58
245 -79 357 -11 63 -47 252 -80 420 -94 486 -103 548 -96 664 5 104 15 169 36
247 13 47 14 47 40 -25 6 -16 13 -26 17 -22 3 3 0 17 -7 31 -7 14 -11 28 -7
31 3 3 1 18 -5 33 -6 14 -12 81 -14 148 -3 99 -2 121 9 117 15 -5 47 -66 47
-89 0 -8 9 -15 20 -15 10 0 35 -15 53 -33 92 -87 135 -123 161 -135 22 -10 27
-10 24 0 -3 7 -14 14 -25 16 -12 2 -23 12 -26 24 -3 11 -10 18 -15 14 -5 -3
-19 13 -33 34 -13 22 -30 40 -37 40 -7 0 -11 4 -8 8 3 5 -8 19 -24 31 -17 12
-30 30 -30 41 0 11 -7 20 -15 20 -8 0 -12 6 -9 14 3 8 -7 18 -25 26 -20 8 -35
24 -43 46 -6 18 -15 31 -20 28 -4 -3 -8 2 -8 10 0 9 -5 16 -11 16 -5 0 -8 4
-4 9 5 9 -23 81 -36 91 -4 3 -6 16 -5 30 1 14 -2 30 -6 37 -5 6 -11 44 -14 85
-3 40 -7 80 -10 88 -10 28 -12 365 -3 382 7 12 6 18 -2 18 -8 0 -9 14 -5 45 6
34 4 45 -6 45 -8 0 -9 3 -3 8 6 4 10 35 9 68 -1 57 0 61 20 57 20 -5 20 -5 -1
11 -24 18 -31 46 -12 46 6 0 8 9 4 20 -12 37 -15 109 -4 115 7 5 7 11 0 19
-14 17 -9 54 8 61 21 8 28 -8 35 -93 9 -97 34 -218 53 -260 20 -42 76 -75 183
-105 123 -35 239 -50 369 -46 l113 4 37 42 c42 49 124 209 139 273 12 53 7 67
-9 22 -6 -18 -15 -32 -21 -32 -5 0 -6 -5 -3 -10 3 -5 2 -10 -4 -10 -6 0 -32
-46 -59 -103 -60 -128 -87 -152 -176 -161 -35 -4 -86 -5 -113 -1 -167 21 -287
51 -370 93 -50 25 -52 27 -68 91 -19 78 -31 248 -21 314 4 27 17 59 31 75 l23
27 176 -2 c165 -1 176 0 176 17 0 10 6 21 13 23 6 3 -6 6 -28 7 -22 1 -51 3
-65 6 -14 2 -100 5 -192 6 -91 2 -169 5 -171 8 -3 3 -6 23 -8 45 -1 22 -8 49
-14 60 -6 11 -12 49 -13 85 -1 36 -6 66 -12 68 -5 2 -10 13 -10 23 0 11 -4 18
-8 15 -4 -2 -14 -1 -22 5 -11 6 -7 9 15 9 21 0 26 3 16 9 -8 5 -11 16 -8 25 4
9 3 16 -1 16 -4 0 -15 12 -25 25 -14 19 -15 29 -7 44 7 13 7 28 0 45 -7 19 -6
25 3 23 8 -1 12 14 13 47 1 29 7 52 15 57 8 5 10 9 5 9 -5 0 -3 7 4 15 10 12
10 18 1 29 -9 11 -9 16 0 22 7 4 9 3 6 -3 -7 -12 42 -37 52 -27 3 4 0 9 -6 11
-7 3 -13 10 -13 18 0 9 8 9 35 -4 34 -16 47 -45 23 -53 -14 -5 -15 -77 -1 -87
4 -3 8 -14 8 -23 0 -24 19 -24 24 -1 2 9 14 33 27 53 13 19 24 45 24 57 0 12
5 25 11 28 5 4 21 31 34 61 13 30 29 54 36 54 6 0 9 8 6 20 -3 11 -1 18 4 14
5 -3 9 1 9 9 0 16 26 31 33 19 2 -4 2 -1 0 6 -4 19 56 74 74 68 8 -3 20 -3 26
1 6 4 34 8 61 10 28 2 54 7 59 12 5 5 16 7 23 4 8 -3 14 1 14 8 0 11 2 11 8 2
6 -10 12 -10 28 2 14 11 15 15 4 14 -45 -4 -81 2 -74 13 5 8 2 9 -10 5 -11 -4
-15 -3 -10 4 3 6 17 9 30 6 13 -2 21 0 18 4 -3 5 -1 9 4 9 6 0 12 -7 16 -15 3
-8 15 -15 26 -15 12 0 31 -5 43 -11 14 -8 22 -8 25 -1 3 10 42 5 42 -7 0 -3
30 -5 66 -4 l66 1 -7 -25 c-6 -25 -5 -26 31 -20 23 4 47 1 65 -8 15 -8 37 -16
47 -18 11 -2 27 -9 36 -16 12 -10 16 -10 16 -1 0 7 7 10 15 6 8 -3 15 -1 15 4
0 5 8 7 18 3 24 -8 72 -54 72 -69 0 -13 39 -26 53 -17 5 3 3 9 -4 14 -11 7
-10 9 3 9 10 0 37 -20 60 -45 23 -25 48 -45 54 -45 7 0 14 -5 16 -12 2 -6 10
-8 16 -4 9 5 6 13 -10 26 -23 18 -23 18 26 15 27 -2 52 -9 56 -16 5 -7 18 -9
33 -5 31 7 60 -19 30 -28 -10 -3 -4 -3 12 0 36 6 41 6 82 1 18 -2 34 2 36 7 2
7 17 5 41 -7 20 -9 34 -22 31 -27 -4 -6 -11 -7 -17 -4 -7 4 -8 2 -4 -4 4 -7
15 -12 25 -12 26 0 66 -36 49 -44 -10 -5 -10 -7 0 -12 7 -3 19 -12 27 -20 8
-8 30 -16 50 -18 19 -2 41 -9 50 -16 8 -7 15 -9 15 -4 0 4 5 3 11 -3 6 -6 17
-9 24 -7 18 7 45 -84 52 -170 6 -81 21 -126 40 -119 10 4 13 -20 12 -113 0
-76 -4 -113 -10 -104 -7 13 -9 12 -9 -2 0 -10 6 -18 14 -18 13 0 13 -4 1 -27
-9 -17 -11 -31 -5 -37 6 -6 3 -14 -8 -22 -15 -12 -15 -15 -2 -24 14 -9 13 -11
-10 -14 -5 0 -11 -5 -12 -11 0 -5 -8 -15 -17 -22 -12 -9 -21 -7 -42 8 -27 19
-75 27 -65 10 10 -15 -17 -19 -69 -10 -28 4 -85 10 -129 13 -43 3 -87 8 -98
12 -14 4 -18 2 -14 -5 4 -6 15 -11 24 -11 15 0 15 -2 2 -10 -13 -8 -12 -10 5
-11 11 -1 4 -5 -15 -8 -31 -7 -28 -8 35 -15 132 -15 225 -34 241 -50 8 -9 20
-16 25 -16 5 0 9 -9 9 -20 0 -11 6 -20 14 -20 8 0 16 -14 20 -32 8 -45 12
-168 5 -168 -3 0 -1 -29 5 -65 5 -36 12 -65 15 -65 4 0 19 33 34 73 15 41 24
57 21 37 -10 -59 -58 -171 -84 -200 -32 -35 -115 -50 -268 -50 -192 0 -293 21
-350 73 -25 23 -55 116 -73 225 -7 43 -18 76 -26 79 -7 3 -13 16 -13 30 0 15
-4 22 -11 17 -6 -3 -8 -17 -5 -29 3 -13 2 -26 -3 -30 -5 -3 -7 -29 -5 -58 3
-28 5 -64 6 -79 1 -26 2 -26 15 -10 7 9 12 13 11 7 -2 -10 16 -55 55 -135 17
-34 33 -50 67 -67 136 -67 559 -72 630 -8 19 17 34 20 25 5 -3 -5 -2 -10 2
-10 11 0 9 -25 -6 -135 -6 -43 -16 -82 -22 -85 -5 -4 -10 -30 -11 -58 0 -29
-4 -49 -9 -46 -5 3 -9 13 -9 22 -1 12 -9 7 -30 -17 -16 -19 -27 -38 -24 -42 2
-4 0 -10 -6 -14 -22 -13 -8 -23 24 -18 l34 5 -12 -36 c-6 -20 -17 -36 -23 -36
-16 0 -17 -12 -1 -28 7 -7 8 -12 2 -12 -5 0 -3 -4 4 -9 12 -7 11 -13 -1 -37
-8 -17 -14 -47 -12 -71 2 -27 -4 -56 -16 -80 -10 -20 -19 -43 -19 -50 0 -7 -5
-13 -12 -13 -6 0 -9 -3 -6 -6 7 -6 -40 -59 -52 -59 -5 0 -12 -3 -16 -7 -12
-13 -26 -9 -19 5 4 6 -5 -1 -19 -18 -14 -16 -21 -32 -15 -34 16 -5 -21 -41
-43 -41 -10 0 -18 -4 -18 -10 0 -5 -6 -10 -13 -10 -20 0 -50 -37 -44 -54 8
-19 -28 -53 -37 -34 -5 10 -7 10 -12 0 -3 -6 -10 -10 -15 -6 -5 3 -9 -2 -9
-10 0 -9 -7 -16 -15 -16 -8 0 -25 -11 -39 -25 -16 -16 -26 -20 -29 -12 -3 7
-8 -1 -12 -16 -5 -19 -12 -26 -22 -23 -8 3 -12 2 -9 -2 6 -10 -59 -82 -73 -82
-12 0 -62 -52 -56 -58 5 -5 74 27 85 39 15 16 78 48 84 41 4 -4 12 1 17 11 10
17 32 18 69 3 17 -7 30 4 84 71 18 23 36 39 40 36 3 -3 8 2 12 11 4 9 24 25
44 35 43 21 40 26 40 -59 0 -25 -3 -56 -6 -70 -3 -14 -6 -34 -5 -45 0 -10 -4
-24 -9 -30 -5 -6 -11 -28 -13 -48 -2 -20 -7 -40 -10 -44 -4 -3 -7 -13 -7 -20
0 -31 19 1 46 74 l28 78 13 -75 c7 -41 15 -92 19 -113 3 -21 7 -45 8 -53 1 -8
8 -20 15 -27 11 -10 12 -5 6 23 l-7 35 27 -25 c29 -27 61 -83 69 -121 58 -259
78 -360 96 -466 12 -71 30 -171 40 -223 25 -123 58 -355 66 -464 l7 -86 913 0
914 0 0 2664 c0 2122 -3 2665 -12 2669 -10 4 -10 6 0 6 9 1 12 48 12 201 l0
200 -642 0 c-677 -1 -678 -1 -678 -45 0 -11 5 -15 15 -11 8 3 14 2 14 -2 -4
-27 3 -44 16 -38 8 3 15 2 15 -3 0 -12 -43 -22 -53 -12 -10 10 -47 2 -47 -10
0 -5 7 -6 15 -3 8 4 15 1 15 -5 0 -6 -15 -11 -32 -11 -25 0 -29 -3 -18 -10 12
-8 10 -10 -10 -10 -58 -1 -126 -7 -146 -13 -24 -8 -28 -37 -6 -37 9 0 13 -3 9
-6 -9 -9 -48 6 -42 17 8 12 -5 11 -44 -2 -29 -10 -39 -38 -12 -31 15 3 14 -15
-1 -21 -10 -4 -10 -6 0 -6 18 -1 15 -19 -5 -24 -14 -4 -13 -5 3 -6 24 -1 42
-31 19 -31 -7 0 -17 5 -20 10 -3 6 -21 10 -38 10 -18 0 -48 5 -67 10 -19 6
-56 11 -83 11 -48 2 -59 9 -64 43 -2 11 -7 24 -12 30 -5 6 -8 55 -7 109 l1 97
-139 0 -139 0 6 -77z m-663 -439 c0 -8 -4 -14 -10 -14 -5 0 -10 9 -10 21 0 11
5 17 10 14 6 -3 10 -13 10 -21z m-258 -56 c3 -45 21 -59 26 -20 2 12 8 20 13
16 5 -3 6 -10 3 -16 -5 -7 -2 -8 6 -3 7 4 16 2 21 -6 7 -11 9 -11 9 3 0 9 -6
18 -12 21 -7 2 -1 4 13 3 21 -1 26 -6 27 -29 0 -15 -3 -25 -8 -22 -5 3 -12 -9
-15 -27 -11 -52 -44 -80 -46 -40 0 11 -2 12 -6 4 -4 -9 -8 -10 -18 -2 -9 8
-15 8 -20 0 -11 -17 -28 -11 -20 8 4 12 3 14 -5 6 -6 -6 -12 -20 -13 -32 0
-12 -3 -19 -6 -17 -2 3 -9 -1 -15 -8 -6 -7 -10 -10 -9 -8 2 2 -2 10 -8 17 -7
9 -7 19 1 34 7 13 8 38 4 66 -5 35 -3 44 7 42 8 -2 17 -7 21 -13 4 -5 8 -1 8
10 0 17 2 17 10 5 8 -12 10 -10 11 10 1 14 1 28 0 33 0 4 3 7 8 7 6 0 11 -19
13 -42z m-181 -21 c-8 -8 -11 -7 -11 4 0 20 13 34 18 19 3 -7 -1 -17 -7 -23z
m80 -114 c-8 -15 -10 -15 -11 -2 0 17 10 32 18 25 2 -3 -1 -13 -7 -23z m-257
-19 c9 -24 4 -24 -18 -3 -16 16 -17 19 -4 19 9 0 19 -7 22 -16z m182 -25 c3
-6 0 -17 -7 -25 -12 -11 -14 -9 -15 11 -2 26 10 33 22 14z m-125 -62 c-11 -12
-24 -18 -27 -14 -9 9 28 46 40 40 4 -3 -1 -15 -13 -26z m59 12 c0 -5 -8 -9
-17 -8 -11 0 -13 3 -5 6 6 2 9 10 6 15 -4 7 -2 8 4 4 7 -4 12 -11 12 -17z
m-155 -20 c-4 -6 -13 -8 -20 -5 -9 3 -11 -2 -7 -16 4 -18 3 -19 -15 -7 -16 9
-18 15 -9 25 13 16 60 19 51 3z m33 -2 c-1 -2 3 -11 10 -20 16 -19 5 -26 -28
-17 -21 6 -23 8 -7 15 9 4 17 14 17 23 0 8 3 13 6 10 3 -4 4 -8 2 -11z m82 -7
c0 -5 -2 -10 -4 -10 -3 0 -8 5 -11 10 -3 6 -1 10 4 10 6 0 11 -4 11 -10z
m-190 -31 c0 -5 4 -8 9 -4 5 3 13 0 17 -6 7 -11 -12 -29 -31 -29 -5 0 -3 5 5
10 13 8 12 10 -2 10 -10 0 -18 7 -18 15 0 8 5 15 10 15 6 0 10 -5 10 -11z
m630 -269 c0 -5 -5 -10 -11 -10 -5 0 -7 5 -4 10 3 6 8 10 11 10 2 0 4 -4 4
-10z m1165 -210 c3 -5 -1 -10 -9 -10 -9 0 -16 5 -16 10 0 6 4 10 9 10 6 0 13
-4 16 -10z m-786 -81 c-8 -5 -16 -3 -21 4 -14 22 -8 28 13 16 17 -9 19 -13 8
-20z m-1167 -11 c-7 -7 -12 -8 -12 -2 0 14 12 26 19 19 2 -3 -1 -11 -7 -17z
m1488 -41 c9 -3 4 -6 -12 -6 -21 -1 -26 3 -21 15 3 9 9 11 12 6 3 -5 13 -12
21 -15z m390 -242 c10 -12 10 -15 -4 -15 -9 0 -16 7 -16 15 0 8 2 15 4 15 2 0
9 -7 16 -15z m-2118 -137 c-6 -6 -15 -8 -19 -4 -4 4 -1 11 7 16 19 12 27 3 12
-12z m-1132 -105 c-1 -21 1 -47 5 -59 4 -13 1 -25 -8 -33 -13 -10 -17 -8 -22
9 -4 12 -2 27 3 32 6 6 7 21 3 37 -9 29 -4 51 10 51 6 0 9 -17 9 -37z m818
-56 c-2 -16 -11 -23 -30 -25 -24 -3 -28 0 -28 21 0 20 5 24 31 25 26 1 30 -3
27 -21z m-809 -86 c13 -8 13 -12 0 -27 -8 -10 -9 -15 -2 -11 6 4 14 3 18 -3
10 -16 35 -12 35 6 0 10 7 14 22 12 20 -3 22 -9 22 -63 1 -55 -1 -60 -19 -57
-11 2 -58 3 -105 3 -46 0 -87 3 -90 8 -3 5 -3 32 -2 60 3 43 7 51 23 51 11 0
22 -7 25 -15 11 -27 34 -17 34 15 0 31 13 37 39 21z m981 -86 c-11 -13 -10
-14 2 -10 12 5 14 0 11 -19 -3 -13 -12 -27 -22 -31 -12 -5 -13 -4 -4 6 8 8 9
18 2 31 -11 20 -5 38 13 38 6 0 6 -6 -2 -15z m3943 -111 c11 -11 -5 -34 -24
-34 -18 0 -26 20 -12 33 8 9 28 9 36 1z m125 -21 c-4 -22 -48 -31 -48 -10 0
19 10 27 32 27 13 0 18 -6 16 -17z m-5600 -10 c5 -17 -26 -29 -40 -15 -6 6 -7
15 -3 22 9 14 37 9 43 -7z m4582 -3 c0 -15 -7 -20 -25 -20 -27 0 -28 1 -19 24
9 24 44 20 44 -4z m110 11 c0 -25 -14 -41 -36 -41 -26 0 -32 18 -12 38 14 14
48 16 48 3z m-4580 -16 c0 -8 -7 -15 -15 -15 -8 0 -15 7 -15 15 0 8 7 15 15
15 8 0 15 -7 15 -15z m120 -10 c0 -16 -27 -27 -36 -14 -3 5 -3 16 0 24 6 17
36 9 36 -10z m105 0 c0 -11 -8 -21 -17 -23 -14 -3 -18 3 -18 23 0 20 4 26 18
23 9 -2 17 -12 17 -23z m133 8 c-5 -25 -28 -28 -28 -4 0 12 6 21 16 21 9 0 14
-7 12 -17z m4780 0 c-2 -10 -13 -19 -26 -21 -24 -4 -29 7 -10 26 18 18 40 15
36 -5z m132 -8 c0 -8 -7 -15 -15 -15 -8 0 -15 7 -15 15 0 8 7 15 15 15 8 0 15
-7 15 -15z m-1260 -14 c0 -22 -21 -33 -40 -21 -11 7 -11 11 -1 24 18 22 41 20
41 -3z m115 0 c0 -8 -8 -19 -18 -25 -22 -14 -42 11 -25 32 14 16 43 12 43 -7z
m903 1 c2 -7 -3 -12 -12 -12 -9 0 -16 7 -16 16 0 17 22 14 28 -4z m-4311 -26
c-4 -9 -11 -16 -17 -16 -11 0 -14 33 -3 44 11 10 26 -11 20 -28z m3983 20 c0
-8 -4 -17 -8 -20 -13 -8 -35 11 -28 23 10 16 36 14 36 -3z m207 -2 c5 -15 -11
-31 -37 -38 -14 -3 -19 -3 -12 0 6 3 9 10 6 15 -3 6 0 17 7 25 13 15 31 15 36
-2z m-4417 -14 c0 -13 -7 -20 -20 -20 -13 0 -20 7 -20 20 0 13 7 20 20 20 13
0 20 -7 20 -20z m690 -10 c0 -21 -29 -35 -43 -21 -13 13 10 51 28 45 8 -4 15
-14 15 -24z m3648 6 c6 -13 8 -33 5 -45 -5 -21 6 -26 47 -23 38 3 44 -10 13
-25 -24 -11 -47 -14 -88 -8 -30 3 -55 11 -55 16 0 6 -14 8 -31 5 -26 -4 -28
-2 -18 11 10 11 10 19 2 32 -9 14 -7 20 11 31 11 8 27 15 34 16 8 1 16 5 20 8
14 15 50 4 60 -18z m-4033 -7 c-10 -15 -25 -10 -19 6 4 8 10 12 15 9 5 -3 7
-10 4 -15z m673 2 c2 -5 11 -7 20 -5 36 9 45 -11 43 -88 -1 -48 4 -82 13 -101
13 -23 15 -71 11 -290 -3 -144 -5 -265 -5 -269 0 -16 -27 -7 -48 15 -17 18
-22 38 -25 99 -4 62 -2 75 9 71 8 -3 14 -1 14 5 0 5 -8 12 -17 14 -21 6 -53
88 -53 137 0 19 -9 53 -20 75 -23 49 -49 190 -42 234 5 34 22 44 23 15 0 -15
2 -14 11 4 14 28 -6 56 -33 48 -27 -9 -24 19 4 39 23 17 89 15 95 -3z m2432
-1 c0 -24 -26 -38 -42 -22 -8 8 -8 15 2 27 18 21 40 19 40 -5z m-2845 -15 c0
-11 -8 -21 -17 -23 -14 -3 -18 3 -18 23 0 20 4 26 18 23 9 -2 17 -12 17 -23z
m-474 8 c8 -48 7 -51 -22 -41 -36 12 -38 21 -4 12 15 -4 25 -2 25 5 0 6 -10
11 -22 11 -19 0 -20 2 -8 10 18 12 30 13 31 3z m367 -16 c4 -20 -25 -34 -39
-20 -14 14 1 45 20 41 9 -2 17 -11 19 -21z m340 -4 c-5 -26 -38 -29 -38 -4 0
15 6 21 21 21 14 0 19 -5 17 -17z m-681 -69 c49 -3 52 -4 46 -20 -5 -13 -21
-15 -96 -12 -98 4 -125 20 -55 33 24 4 49 7 56 6 6 -1 12 4 12 11 0 9 3 9 10
-2 5 -8 17 -15 27 -16z m3004 -1 c5 -14 8 -34 6 -42 -3 -11 -5 -10 -6 4 0 11
-8 31 -17 43 -9 13 -11 22 -4 22 6 0 15 -12 21 -27z m-2901 -14 c0 -5 -9 -9
-20 -9 -11 0 -20 4 -20 8 0 4 9 8 20 9 11 1 20 -2 20 -8z m360 -5 c0 -2 -9 -4
-20 -4 -11 0 -20 4 -20 9 0 5 9 7 20 4 11 -3 20 -7 20 -9z m2545 -109 c-3 -31
-9 -55 -11 -52 -3 2 -2 30 2 61 4 31 9 54 12 52 2 -3 1 -30 -3 -61z m183 30
c11 -10 -71 -105 -90 -105 -9 0 -10 52 -2 74 3 9 12 16 20 16 8 0 14 7 14 16
0 13 6 15 27 9 16 -4 29 -8 31 -10z m-1009 -95 c0 -23 -1 -23 -9 -5 -5 11 -9
29 -9 40 -1 17 1 17 9 5 5 -8 9 -26 9 -40z m988 -61 c-12 -37 -26 -68 -32 -70
-5 -2 -10 22 -12 56 -2 57 -1 62 25 77 15 9 30 14 34 10 4 -4 -3 -37 -15 -73z
m-59 -62 c14 -39 16 -107 3 -139 -5 -13 -14 -42 -20 -65 -7 -24 -21 -52 -33
-62 -16 -16 -22 -36 -26 -92 -4 -53 -2 -70 7 -65 6 4 11 3 11 -3 0 -5 -4 -13
-10 -16 -5 -3 -10 -14 -10 -25 0 -16 -27 -36 -37 -26 -7 6 39 226 46 226 4 0
6 17 6 38 -4 121 20 262 45 262 3 0 11 -15 18 -33z m-3280 -159 c-2 -18 -7
-33 -13 -33 -5 0 -11 15 -13 33 -3 24 1 32 13 32 12 0 16 -8 13 -32z m4012
-48 c0 -10 -4 -21 -9 -24 -12 -8 -22 20 -15 39 8 19 24 9 24 -15z m-940 -294
c0 -26 -6 -18 -14 19 -5 22 -4 26 4 15 5 -8 10 -24 10 -34z m-3295 -86 c3 -5
1 -10 -4 -10 -6 0 -11 5 -11 10 0 6 2 10 4 10 3 0 8 -4 11 -10z m4208 -7 c-8
-24 -24 -43 -35 -43 -16 0 22 59 39 60 1 0 0 -8 -4 -17z m-729 -42 c8 -12 -17
-61 -31 -61 -16 0 -17 42 -1 58 14 14 25 15 32 3z m662 -37 c-9 -9 -24 -13
-35 -9 -14 4 -21 -1 -29 -25 -13 -37 -42 -41 -42 -5 0 33 35 68 60 60 11 -3
28 -2 37 4 24 13 29 -4 9 -25z m-2816 -109 c15 -8 37 -26 49 -41 17 -21 25
-25 51 -19 l30 7 0 -71 c0 -42 -4 -71 -10 -71 -9 0 -44 19 -69 37 -2 1 2 9 8
17 16 19 5 39 -53 96 -60 58 -62 74 -6 45z m2796 -117 c-3 -24 -21 -35 -31
-19 -8 14 13 53 25 46 6 -3 8 -16 6 -27z m158 -44 c5 -14 4 -15 -9 -4 -17 14
-19 20 -6 20 5 0 12 -7 15 -16z m216 -3 c0 -5 -7 -14 -16 -22 -13 -10 -17 -10
-24 1 -5 8 -6 18 -4 22 7 11 44 10 44 -1z m34 -6 c-25 -19 -35 -19 -28 0 4 8
16 15 27 15 20 0 20 0 1 -15z m-4362 -132 c19 -18 34 -24 53 -21 16 4 24 1 22
-6 -2 -6 -18 -11 -35 -11 -28 0 -32 -3 -32 -26 0 -33 -27 -46 -49 -24 -14 13
-13 16 4 30 17 13 18 16 5 25 -8 5 -21 8 -29 5 -8 -3 -11 0 -8 9 6 15 -20 26
-65 26 -39 0 -58 10 -58 29 0 13 9 18 36 19 20 1 39 4 42 6 7 8 84 -34 114
-61z m-227 27 c7 -12 -2 -12 -30 0 -19 8 -19 9 2 9 12 1 25 -3 28 -9z m4799
-275 c-4 -8 -10 -15 -14 -15 -4 0 -13 7 -20 15 -11 13 -8 15 13 15 19 0 25 -4
21 -15z m36 -14 c0 -6 -4 -13 -10 -16 -5 -3 -10 1 -10 9 0 9 5 16 10 16 6 0
10 -4 10 -9z m-40 -21 c0 -5 -2 -10 -4 -10 -3 0 -8 5 -11 10 -3 6 -1 10 4 10
6 0 11 -4 11 -10z m-35 -10 c-3 -5 -2 -10 4 -10 6 0 8 -7 5 -15 -4 -8 -10 -15
-16 -15 -5 0 -6 5 -2 12 4 7 3 8 -4 4 -7 -4 -12 -17 -12 -29 0 -19 -6 -22 -47
-23 -28 -1 -49 -6 -51 -14 -3 -9 -6 -9 -13 1 -7 11 -12 12 -28 2 -15 -10 -22
-9 -30 1 -9 11 -2 15 31 21 62 11 62 11 69 2 3 -4 12 0 20 9 12 16 12 17 -1 9
-13 -8 -13 -7 -1 8 7 9 22 17 33 17 10 0 21 7 24 15 4 8 10 15 16 15 5 0 6 -4
3 -10z m-4880 -80 c3 -6 -1 -7 -9 -4 -18 7 -21 14 -7 14 6 0 13 -4 16 -10z
m4658 -7 c3 -5 1 -17 -4 -28 -4 -11 -8 -17 -8 -12 -1 4 -12 0 -26 -9 -13 -8
-29 -13 -35 -9 -17 10 -12 53 8 58 29 8 61 7 65 0z m564 -95 c-3 -8 -6 -5 -6
6 -1 11 2 17 5 13 3 -3 4 -12 1 -19z m-167 -12 c0 -3 -4 -8 -10 -11 -5 -3 -10
-1 -10 4 0 6 5 11 10 11 6 0 10 -2 10 -4z"/>
<path d="M1600 3350 c-8 -5 -11 -12 -7 -16 4 -4 15 0 24 9 18 18 8 23 -17 7z"/>
<path d="M1662 3205 c0 -16 2 -22 5 -12 2 9 2 23 0 30 -3 6 -5 -1 -5 -18z"/>
<path d="M1642 3105 c0 -16 2 -22 5 -12 2 9 2 23 0 30 -3 6 -5 -1 -5 -18z"/>
<path d="M1965 5720 c-38 -4 -113 -9 -165 -10 -86 -2 -180 -16 -125 -19 32 -2
125 -25 125 -31 0 -20 -150 -33 -190 -18 -33 13 -92 16 -121 6 -66 -23 1 -31
246 -29 134 1 252 3 263 6 12 2 28 -6 40 -18 17 -19 21 -40 25 -146 5 -135 14
-158 75 -194 l31 -18 -13 48 c-23 82 -39 219 -33 276 5 42 3 57 -8 67 -8 7
-12 16 -9 21 6 10 -8 12 -81 9 -59 -2 -53 12 8 18 23 2 44 5 46 8 5 5 -31 34
-39 32 -3 -1 -36 -4 -75 -8z"/>
<path d="M1615 5700 c-18 -8 -17 -9 8 -9 15 -1 27 4 27 9 0 12 -8 12 -35 0z"/>
<path d="M1490 5680 c0 -23 8 -25 32 -6 20 15 14 26 -14 26 -11 0 -18 -7 -18
-20z"/>
<path d="M4063 5503 c-15 -5 -17 -23 -4 -23 5 0 11 7 15 15 3 8 4 15 3 14 -1
0 -8 -3 -14 -6z"/>
<path d="M2370 5206 c0 -2 9 -6 20 -9 11 -3 18 -1 14 4 -5 9 -34 13 -34 5z"/>
<path d="M144 5086 c-12 -14 -39 -35 -61 -48 -89 -52 -84 -40 -81 -183 l3
-127 24 33 c13 18 24 39 24 47 0 8 8 17 17 19 10 3 23 16 29 29 6 13 15 24 20
24 5 0 11 9 14 19 3 11 17 22 35 25 22 5 29 12 25 24 -2 10 3 31 11 47 20 38
20 54 1 62 -9 3 -15 15 -13 26 4 31 -23 32 -48 3z"/>
<path d="M2022 5030 c0 -19 2 -27 5 -17 2 9 2 25 0 35 -3 9 -5 1 -5 -18z"/>
<path d="M2095 5051 c-3 -5 -1 -12 5 -16 5 -3 10 1 10 9 0 18 -6 21 -15 7z"/>
<path d="M1977 5014 c-5 -5 -53 -11 -111 -14 -6 0 -4 -6 2 -12 10 -10 8 -16
-10 -29 -18 -14 -20 -20 -10 -32 10 -12 10 -17 1 -23 -14 -8 25 -33 54 -34 9
0 17 -4 17 -9 0 -5 9 -13 20 -16 11 -3 20 -12 20 -20 0 -7 7 -16 16 -19 14 -5
15 -4 4 9 -16 19 -5 32 14 16 11 -9 15 -8 20 6 4 10 3 19 -3 21 -6 2 -4 14 6
29 19 28 22 40 30 93 3 26 2 31 -6 20 -6 -8 -11 -23 -11 -32 0 -10 -5 -18 -11
-18 -6 0 -8 9 -4 20 9 29 -20 62 -38 44z"/>
<path d="M2090 5001 c0 -25 6 -27 13 -6 4 8 2 17 -3 20 -6 4 -10 -3 -10 -14z"/>
<path d="M2025 4791 c-3 -5 -2 -12 3 -15 5 -3 9 1 9 9 0 17 -3 19 -12 6z"/>
<path d="M1082 4468 c6 -18 28 -21 28 -4 0 9 -7 16 -16 16 -9 0 -14 -5 -12
-12z"/>
<path d="M1585 4439 c-4 -6 -5 -13 -2 -15 5 -6 -28 -44 -38 -44 -9 0 -45 -40
-45 -49 0 -5 14 -14 30 -21 19 -8 30 -20 30 -32 0 -15 6 -19 27 -16 21 2 32
12 45 40 12 26 23 36 33 32 23 -9 29 22 8 45 -10 11 -23 26 -30 33 -17 18 -41
38 -47 38 -3 0 -8 -5 -11 -11z"/>
<path d="M530 4356 c0 -19 4 -23 19 -19 18 5 18 6 3 24 -21 24 -22 24 -22 -5z"/>
<path d="M1242 4307 c16 -46 28 -56 28 -21 0 18 -7 34 -19 41 -19 12 -19 11
-9 -20z"/>
<path d="M771 4275 c-12 -31 -32 -77 -45 -104 -14 -27 -22 -52 -18 -56 4 -3 2
-5 -3 -3 -11 3 -15 -4 -15 -26 0 -11 58 -32 66 -24 2 3 54 251 54 262 0 3 -4
6 -9 6 -5 0 -19 -25 -30 -55z"/>
<path d="M505 4298 c-13 -13 -19 -29 -16 -46 4 -32 18 -62 30 -62 13 0 23 83
14 107 -8 20 -8 20 -28 1z"/>
<path d="M1320 4260 c0 -14 -6 -49 -14 -78 -7 -29 -9 -52 -5 -52 5 0 26 -17
47 -38 37 -37 72 -51 68 -28 -3 22 -18 37 -31 32 -25 -9 -34 16 -28 78 5 52 2
65 -15 86 l-21 25 -1 -25z"/>
<path d="M326 4251 c-4 -7 -5 -15 -2 -18 9 -9 19 4 14 18 -4 11 -6 11 -12 0z"/>
<path d="M275 4230 c3 -5 8 -10 11 -10 2 0 4 5 4 10 0 6 -5 10 -11 10 -5 0 -7
-4 -4 -10z"/>
<path d="M200 4226 c0 -27 64 -116 83 -116 5 0 -5 14 -22 32 -17 17 -31 37
-31 42 -1 12 -30 54 -30 42z"/>
<path d="M836 4204 c-9 -24 -7 -54 4 -54 6 0 10 16 10 35 0 38 -4 44 -14 19z"/>
<path d="M432 4175 c0 -16 2 -22 5 -12 2 9 2 23 0 30 -3 6 -5 -1 -5 -18z"/>
<path d="M1556 4178 c4 -13 12 -31 19 -40 10 -15 14 -16 30 -4 10 7 19 25 20
40 1 24 -3 26 -38 26 -35 0 -38 -2 -31 -22z"/>
<path d="M1480 4090 c0 -5 5 -10 11 -10 5 0 7 5 4 10 -3 6 -8 10 -11 10 -2 0
-4 -4 -4 -10z"/>
<path d="M1310 4050 c0 -14 46 -60 60 -60 5 0 10 7 10 15 0 8 -7 15 -15 15 -8
0 -15 4 -15 10 0 5 -9 14 -20 20 -14 8 -20 8 -20 0z"/>
<path d="M1525 4029 c-4 -6 -4 -13 -1 -16 8 -8 36 5 36 17 0 13 -27 13 -35 -1z"/>
<path d="M1188 3999 c-7 -42 -3 -47 12 -20 7 13 7 27 2 38 -7 12 -10 9 -14
-18z"/>
<path d="M698 4013 c7 -3 16 -2 19 1 4 3 -2 6 -13 5 -11 0 -14 -3 -6 -6z"/>
<path d="M624 3960 c8 -62 13 -71 26 -50 16 25 11 60 -11 83 l-22 22 7 -55z"/>
<path d="M782 3998 c-7 -7 -12 -15 -12 -19 0 -9 40 -19 41 -11 0 4 2 15 4 25
4 20 -15 23 -33 5z"/>
<path d="M1270 3994 c0 -11 4 -25 9 -32 6 -11 9 -9 14 7 3 11 -1 25 -9 32 -11
9 -14 8 -14 -7z"/>
<path d="M1439 3973 c-17 -30 -17 -36 -5 -70 7 -22 8 -22 32 -6 42 27 49 50
22 78 -29 31 -30 31 -49 -2z"/>
<path d="M929 3980 c-9 -66 2 -86 27 -52 18 23 17 49 -2 56 -21 8 -24 8 -25
-4z"/>
<path d="M1116 3976 c3 -9 11 -16 16 -16 13 0 5 23 -10 28 -7 2 -10 -2 -6 -12z"/>
<path d="M456 3949 c-3 -8 -7 -40 -9 -71 -4 -53 -3 -56 15 -47 16 8 17 18 12
67 -7 62 -11 72 -18 51z"/>
<path d="M1387 3824 c-9 -9 12 -46 23 -39 4 3 6 14 3 25 -5 20 -15 25 -26 14z"/>
<path d="M1977 3473 c-52 -8 -62 -41 -61 -193 1 -74 6 -148 12 -165 6 -21 8 7
4 98 -3 72 -1 132 4 135 16 12 35 53 29 62 -4 6 1 17 9 26 9 8 16 12 16 7 0
-4 6 -1 13 9 7 9 24 18 37 21 21 4 20 4 -5 4 -16 0 -42 -2 -58 -4z"/>
<path d="M2620 3441 c0 -2 8 -10 18 -17 15 -12 14 -13 -11 -4 -16 5 -34 10
-40 9 -7 0 12 -9 40 -19 68 -24 113 -51 113 -67 0 -7 7 -13 15 -13 8 0 15 -9
15 -20 0 -21 15 -27 25 -10 3 6 21 10 38 11 18 0 27 3 21 5 -6 3 -9 24 -6 54
l4 49 -34 6 c-19 4 -41 5 -49 4 -8 -1 -32 3 -55 9 -38 11 -94 13 -94 3z"/>
<path d="M2899 3403 c-1 -5 0 -18 1 -30 1 -12 -3 -31 -9 -41 -9 -17 -7 -21 17
-27 15 -3 35 -14 45 -23 16 -14 19 -14 27 -2 6 8 10 23 10 33 0 9 3 17 8 17 4
0 8 18 10 40 l2 40 -55 0 c-30 0 -55 -3 -56 -7z"/>
<path d="M3068 3353 c7 -3 16 -2 19 1 4 3 -2 6 -13 5 -11 0 -14 -3 -6 -6z"/>
<path d="M2269 3301 c-74 -25 -138 -55 -133 -62 8 -14 75 1 96 21 31 28 48 25
48 -9 0 -41 17 -50 93 -50 63 0 67 2 73 25 4 14 4 28 0 31 -3 4 -6 -3 -6 -14
0 -20 -18 -33 -43 -33 -9 0 -9 2 -1 8 15 9 19 42 9 65 -5 12 -14 16 -29 12
-11 -2 -15 -2 -8 1 22 10 12 20 -22 20 -18 0 -53 -7 -77 -15z m113 -46 c0 -5
-5 -11 -11 -13 -6 -2 -11 4 -11 13 0 9 5 15 11 13 6 -2 11 -8 11 -13z"/>
<path d="M3341 3193 c16 -14 29 -29 29 -34 0 -15 -20 -10 -42 11 -26 24 -40
26 -32 5 7 -18 -7 -20 -24 -3 -16 16 -24 5 -17 -23 5 -22 12 -25 65 -27 l60
-3 0 30 c0 35 15 41 25 11 3 -11 10 -20 15 -20 5 0 21 -11 37 -24 30 -25 75
-37 94 -26 7 5 -13 22 -55 46 -36 21 -66 44 -66 50 0 7 -8 10 -20 7 -14 -4
-19 -1 -15 8 4 11 -6 14 -39 15 l-44 1 29 -24z"/>
<path d="M2673 3190 c-3 -11 -10 -20 -17 -20 -16 0 -37 -37 -30 -55 6 -15 43
-22 45 -7 1 9 5 32 14 71 7 34 -4 44 -12 11z m-13 -50 c0 -11 -7 -20 -15 -20
-13 0 -14 4 -5 20 6 11 13 20 15 20 3 0 5 -9 5 -20z"/>
<path d="M3217 3173 c-15 -14 -7 -42 12 -40 16 1 18 5 9 22 -14 26 -14 26 -21
18z"/>
<path d="M1834 3155 c3 -8 1 -15 -4 -15 -6 0 -10 -7 -10 -15 0 -8 5 -15 10
-15 10 0 12 5 14 33 1 6 6 15 11 19 6 4 2 8 -9 8 -12 0 -16 -5 -12 -15z"/>
<path d="M3035 3120 c-3 -5 -1 -10 4 -10 6 0 11 5 11 10 0 6 -2 10 -4 10 -3 0
-8 -4 -11 -10z"/>
<path d="M1941 3070 c0 -8 4 -22 9 -30 12 -18 12 -2 0 25 -6 13 -9 15 -9 5z"/>
<path d="M2950 2959 c0 -5 5 -7 10 -4 6 3 10 8 10 11 0 2 -4 4 -10 4 -5 0 -10
-5 -10 -11z"/>
<path d="M2946 2901 c-19 -21 -19 -22 2 -51 12 -16 22 -34 22 -40 0 -5 4 -10
9 -10 4 0 18 -27 30 -60 22 -59 41 -85 41 -56 0 9 6 16 13 16 8 0 9 3 1 8 -13
9 -68 120 -69 141 -4 45 -6 52 -14 46 -5 -3 -11 2 -13 11 -3 14 -6 13 -22 -5z"/>
<path d="M2670 2848 c-1 -7 -14 -29 -30 -48 -17 -19 -30 -45 -29 -60 0 -15 3
-19 6 -10 4 8 18 27 33 42 26 26 46 88 28 88 -4 0 -8 -6 -8 -12z"/>
<path d="M3660 2371 c0 -5 5 -13 10 -16 6 -3 10 -2 10 4 0 5 -4 13 -10 16 -5
3 -10 2 -10 -4z"/>
<path d="M2390 2239 c0 -5 11 -11 25 -15 14 -3 25 -10 25 -16 0 -5 9 -6 20 -3
14 4 20 2 20 -8 0 -14 41 -28 85 -31 11 -1 25 -4 32 -9 6 -4 13 -2 15 4 3 9 9
9 25 0 27 -14 83 -15 83 -1 0 6 5 10 11 10 5 0 8 -4 5 -9 -3 -4 14 -7 39 -5
31 2 49 -1 61 -13 13 -14 20 -14 36 -4 15 9 23 9 34 0 8 -6 14 -8 14 -4 0 5 8
1 18 -7 21 -18 82 -32 82 -18 0 6 5 10 12 10 6 0 3 -8 -7 -20 -17 -19 -17 -19
19 -18 25 1 36 6 36 17 0 9 7 24 14 34 14 18 15 18 26 0 7 -11 10 -12 7 -3 -5
18 51 62 67 53 8 -4 8 -2 1 5 -6 6 -25 12 -43 14 -19 1 -36 6 -39 11 -2 4 -13
5 -24 2 -11 -4 -19 -2 -19 5 0 6 -10 8 -24 4 -13 -3 -34 -1 -45 6 -17 9 -21 8
-21 -5 0 -17 -16 -20 -25 -5 -4 6 -12 10 -18 9 -7 -1 -19 1 -28 5 -10 4 -32
-1 -54 -14 -33 -19 -43 -20 -91 -10 -29 6 -62 10 -71 9 -10 -2 -32 1 -50 5
-18 4 -54 9 -80 10 -26 2 -61 6 -78 10 -23 6 -26 5 -15 -3 18 -13 7 -13 -42
-2 -22 5 -38 5 -38 0z"/>
<path d="M3650 2140 c0 -5 5 -10 11 -10 5 0 7 5 4 10 -3 6 -8 10 -11 10 -2 0
-4 -4 -4 -10z"/>
<path d="M2230 1725 c7 -9 15 -13 17 -11 7 7 -7 26 -19 26 -6 0 -6 -6 2 -15z"/>
<path d="M2260 1710 c0 -5 5 -10 11 -10 5 0 7 5 4 10 -3 6 -8 10 -11 10 -2 0
-4 -4 -4 -10z"/>
<path d="M3005 1500 c-3 -5 1 -10 9 -10 8 0 18 5 21 10 3 6 -1 10 -9 10 -8 0
-18 -4 -21 -10z"/>
<path d="M2186 943 c-24 -38 -58 -97 -76 -133 -30 -59 -33 -76 -38 -176 -3
-80 0 -133 12 -195 25 -120 58 -231 76 -250 8 -8 20 -24 25 -33 11 -19 18 -17
155 46 36 16 88 39 115 50 158 63 230 121 261 212 l16 46 108 0 109 0 35 -73
c50 -106 109 -156 290 -251 82 -42 152 -74 157 -69 4 4 40 64 79 132 39 68 88
145 110 171 32 39 42 60 56 132 16 76 17 102 7 221 -6 75 -14 141 -18 148 -20
31 -391 -35 -508 -91 -51 -25 -55 -25 -78 1 l-19 22 -36 -29 c-62 -50 -75 -54
-170 -54 -90 0 -90 0 -124 35 -19 19 -40 35 -47 35 -7 0 -65 27 -130 59 -103
52 -267 111 -309 111 -8 0 -34 -30 -58 -67z"/>
</g>
</svg>
